<svg width="55" height="37" viewBox="0 0 55 37" fill="none" xmlns="http://www.w3.org/2000/svg">
<path d="M54.209 0.758193C53.7079 0.272576 53.0301 0 52.3236 0C51.6171 0 50.9393 0.272576 50.4382 0.758193L20.7536 29.5691L4.70793 13.9252C4.21854 13.41 3.53928 13.1055 2.81959 13.0786C2.0999 13.0517 1.39873 13.3046 0.870331 13.7818C0.341929 14.2589 0.0295785 14.9212 0.00199455 15.6228C-0.0255894 16.3245 0.233852 17.0081 0.723244 17.5233L20.7536 37L54.209 4.46059C54.4596 4.21821 54.6586 3.92983 54.7943 3.61211C54.9301 3.29438 55 2.95359 55 2.60939C55 2.2652 54.9301 1.9244 54.7943 1.60668C54.6586 1.28895 54.4596 1.00058 54.209 0.758193Z" fill="#00FF38"/>
</svg>
