<svg width="85" height="85" viewBox="0 0 85 85" fill="none" xmlns="http://www.w3.org/2000/svg">
<path d="M42.5 0C34.0943 0 25.8774 2.49258 18.8883 7.16254C11.8992 11.8325 6.45186 18.4701 3.23514 26.2359C0.0184144 34.0018 -0.823227 42.5471 0.816644 50.7913C2.45652 59.0355 6.50425 66.6083 12.448 72.552C18.3917 78.4958 25.9645 82.5435 34.2087 84.1834C42.4529 85.8232 50.9982 84.9816 58.764 81.7649C66.5299 78.5481 73.1675 73.1008 77.8375 66.1117C82.5074 59.1226 85 50.9057 85 42.5C85 31.2283 80.5223 20.4183 72.552 12.448C64.5817 4.47767 53.7717 0 42.5 0ZM42.5 79.6875C35.145 79.6875 27.9552 77.5065 21.8397 73.4203C15.7243 69.334 10.9579 63.5262 8.14325 56.731C5.32861 49.9359 4.59218 42.4587 6.02707 35.2451C7.46195 28.0314 11.0037 21.4052 16.2045 16.2045C21.4052 11.0037 28.0314 7.46193 35.2451 6.02705C42.4588 4.59216 49.9359 5.3286 56.731 8.14323C63.5262 10.9579 69.3341 15.7243 73.4203 21.8397C77.5065 27.9552 79.6875 35.145 79.6875 42.5C79.6875 52.3627 75.7695 61.8215 68.7955 68.7955C61.8215 75.7695 52.3627 79.6875 42.5 79.6875Z" fill="#00FF38"/>
</svg>
